<?xml version="1.0" standalone="no"?>
<!DOCTYPE svg PUBLIC "-//W3C//DTD SVG 20010904//EN"
 "http://www.w3.org/TR/2001/REC-SVG-20010904/DTD/svg10.dtd">
<svg version="1.0" xmlns="http://www.w3.org/2000/svg"
 width="500.000000pt" height="500.000000pt" viewBox="0 0 500.000000 500.000000"
 preserveAspectRatio="xMidYMid meet">

<g transform="translate(0.000000,500.000000) scale(0.100000,-0.100000)"
fill="#000000" stroke="none">
<path d="M845 4581 c-208 -51 -382 -229 -429 -438 -23 -103 -24 -639 -1 -683
27 -52 118 -57 158 -9 15 19 17 49 17 303 0 245 3 292 19 354 23 87 65 151
138 211 97 79 123 84 480 90 341 7 334 5 351 66 13 45 -4 92 -38 110 -45 23
-597 21 -695 -4z"/>
<path d="M3418 4582 c-36 -22 -52 -68 -37 -109 21 -61 29 -63 336 -63 301 0
370 -9 448 -55 94 -56 170 -159 194 -266 6 -24 11 -172 11 -329 0 -316 1 -322
63 -338 41 -11 87 2 109 31 16 20 18 53 18 327 0 341 -7 390 -73 515 -42 78
-156 192 -234 233 -121 64 -180 72 -512 72 -261 -1 -299 -3 -323 -18z"/>
<path d="M1519 3181 l-29 -29 0 -184 c0 -175 1 -184 23 -211 16 -20 34 -30 64
-34 37 -5 46 -2 73 25 l30 30 0 192 0 191 -26 24 c-39 36 -96 34 -135 -4z"/>
<path d="M2513 3186 l-28 -24 -5 -449 c-3 -246 -7 -449 -8 -451 -1 -1 -17 -11
-34 -22 -25 -15 -51 -20 -110 -20 -67 0 -80 -3 -106 -25 -39 -32 -48 -74 -28
-114 23 -44 44 -51 156 -51 88 0 108 3 155 25 62 30 118 88 149 154 20 45 21
57 21 499 l0 454 -28 24 c-38 33 -96 33 -134 0z"/>
<path d="M3306 3184 l-26 -27 0 -192 0 -193 31 -26 c43 -36 91 -35 130 3 l29
29 0 185 c0 185 0 186 -26 216 -35 42 -98 44 -138 5z"/>
<path d="M465 1719 c-63 -17 -65 -29 -65 -411 0 -386 7 -437 72 -561 41 -78
155 -192 233 -234 124 -66 175 -73 508 -73 246 0 303 3 327 15 52 27 57 118 9
157 -19 16 -50 18 -308 18 -157 0 -306 5 -330 11 -107 24 -210 100 -266 194
-48 80 -55 143 -55 500 0 297 -2 332 -18 352 -21 29 -68 42 -107 32z"/>
<path d="M3056 1722 c-11 -2 -43 -21 -70 -42 -68 -50 -154 -93 -246 -120 -58
-17 -110 -23 -231 -27 -146 -5 -164 -3 -258 21 -114 29 -201 69 -277 127 -40
31 -59 39 -93 39 -55 0 -91 -36 -91 -90 0 -48 24 -78 109 -134 121 -81 265
-132 436 -156 268 -37 587 41 771 188 55 44 59 51 62 93 2 32 -2 52 -15 67
-20 24 -67 41 -97 34z"/>
<path d="M4434 1718 c-60 -15 -59 -8 -64 -407 -5 -354 -6 -368 -28 -421 -44
-105 -127 -188 -232 -231 -52 -22 -70 -24 -371 -29 -344 -5 -339 -5 -359 -64
-13 -40 -1 -79 33 -107 20 -17 44 -18 327 -19 278 0 312 2 380 21 206 56 363
213 419 419 19 69 21 102 21 427 l0 351 -25 30 c-28 34 -56 42 -101 30z"/>
</g>
</svg>
